<?xml version="1.0" standalone="no"?>
<!DOCTYPE svg PUBLIC "-//W3C//DTD SVG 20010904//EN"
 "http://www.w3.org/TR/2001/REC-SVG-20010904/DTD/svg10.dtd">
<svg version="1.0" xmlns="http://www.w3.org/2000/svg"
 width="965.000000pt" height="767.000000pt" viewBox="0 0 965.000000 767.000000"
 preserveAspectRatio="xMidYMid meet">

<g transform="translate(0.000000,767.000000) scale(0.100000,-0.100000)"
fill="#000000" stroke="none">
<path d="M0 4165 l0 -3505 53 -30 c206 -121 602 -293 882 -383 763 -247 1590
-306 2398 -171 667 111 1304 358 1856 721 604 396 1056 873 1548 1633 124 191
211 352 319 583 90 195 146 290 237 406 198 251 553 523 931 713 104 52 272
111 551 193 320 94 367 112 475 185 192 130 320 320 376 555 23 96 22 286 -1
385 -46 195 -154 373 -300 493 -232 191 -496 251 -815 184 -176 -36 -422 -57
-678 -57 -321 0 -504 23 -734 91 -344 102 -572 256 -873 591 -342 380 -641
647 -967 866 l-77 52 -2591 0 -2590 0 0 -3505z"/>
</g>
</svg>
